<mxfile host="Electron" agent="Mozilla/5.0 (Windows NT 10.0; Win64; x64) AppleWebKit/537.36 (KHTML, like Gecko) draw.io/24.7.17 Chrome/128.0.6613.36 Electron/32.0.1 Safari/537.36" version="24.7.17">
  <diagram name="Page-1" id="2YBvvXClWsGukQMizWep">
    <mxGraphModel dx="1244" dy="591" grid="1" gridSize="10" guides="1" tooltips="1" connect="1" arrows="1" fold="1" page="1" pageScale="1" pageWidth="850" pageHeight="1100" math="0" shadow="0">
      <root>
        <mxCell id="0" />
        <mxCell id="1" parent="0" />
        <mxCell id="386D3UfEkrcN13lC_0d0-39" value="interface" style="shape=module;align=left;spacingLeft=20;align=center;verticalAlign=top;whiteSpace=wrap;html=1;" vertex="1" parent="1">
          <mxGeometry x="220" y="130" width="100" height="50" as="geometry" />
        </mxCell>
        <mxCell id="386D3UfEkrcN13lC_0d0-40" value="fenetre" style="shape=module;align=left;spacingLeft=20;align=center;verticalAlign=top;whiteSpace=wrap;html=1;" vertex="1" parent="1">
          <mxGeometry x="220" y="270" width="100" height="50" as="geometry" />
        </mxCell>
        <mxCell id="386D3UfEkrcN13lC_0d0-41" value="programme" style="shape=module;align=left;spacingLeft=20;align=center;verticalAlign=top;whiteSpace=wrap;html=1;" vertex="1" parent="1">
          <mxGeometry x="310" y="390" width="100" height="50" as="geometry" />
        </mxCell>
        <mxCell id="386D3UfEkrcN13lC_0d0-42" value="Module" style="shape=module;align=left;spacingLeft=20;align=center;verticalAlign=top;whiteSpace=wrap;html=1;" vertex="1" parent="1">
          <mxGeometry x="640" y="200" width="100" height="50" as="geometry" />
        </mxCell>
        <mxCell id="386D3UfEkrcN13lC_0d0-43" value="" style="ellipse;html=1;shape=startState;fillColor=#000000;strokeColor=#ff0000;" vertex="1" parent="1">
          <mxGeometry x="255" y="210" width="30" height="30" as="geometry" />
        </mxCell>
        <mxCell id="386D3UfEkrcN13lC_0d0-44" value="" style="edgeStyle=orthogonalEdgeStyle;html=1;verticalAlign=bottom;endArrow=open;endSize=8;strokeColor=#ff0000;rounded=0;" edge="1" source="386D3UfEkrcN13lC_0d0-43" parent="1">
          <mxGeometry relative="1" as="geometry">
            <mxPoint x="270" y="270" as="targetPoint" />
          </mxGeometry>
        </mxCell>
        <mxCell id="386D3UfEkrcN13lC_0d0-45" value="" style="ellipse;html=1;shape=startState;fillColor=#000000;strokeColor=#ff0000;" vertex="1" parent="1">
          <mxGeometry x="345" y="330" width="30" height="30" as="geometry" />
        </mxCell>
        <mxCell id="386D3UfEkrcN13lC_0d0-46" value="" style="edgeStyle=orthogonalEdgeStyle;html=1;verticalAlign=bottom;endArrow=open;endSize=8;strokeColor=#ff0000;rounded=0;" edge="1" source="386D3UfEkrcN13lC_0d0-45" parent="1">
          <mxGeometry relative="1" as="geometry">
            <mxPoint x="360" y="390" as="targetPoint" />
          </mxGeometry>
        </mxCell>
        <mxCell id="386D3UfEkrcN13lC_0d0-49" value="name" style="endArrow=block;endFill=1;html=1;edgeStyle=orthogonalEdgeStyle;align=left;verticalAlign=top;rounded=0;entryX=1;entryY=0.25;entryDx=0;entryDy=0;" edge="1" parent="1" target="386D3UfEkrcN13lC_0d0-39">
          <mxGeometry x="-1" relative="1" as="geometry">
            <mxPoint x="270" y="210" as="sourcePoint" />
            <mxPoint x="430" y="210" as="targetPoint" />
            <Array as="points">
              <mxPoint x="270" y="190" />
              <mxPoint x="430" y="190" />
              <mxPoint x="430" y="143" />
            </Array>
          </mxGeometry>
        </mxCell>
        <mxCell id="386D3UfEkrcN13lC_0d0-50" value="1" style="edgeLabel;resizable=0;html=1;align=left;verticalAlign=bottom;" connectable="0" vertex="1" parent="386D3UfEkrcN13lC_0d0-49">
          <mxGeometry x="-1" relative="1" as="geometry" />
        </mxCell>
        <mxCell id="386D3UfEkrcN13lC_0d0-51" value="dispatch" style="html=1;verticalAlign=bottom;endArrow=block;curved=0;rounded=0;entryX=0.5;entryY=0;entryDx=0;entryDy=0;" edge="1" parent="1" target="386D3UfEkrcN13lC_0d0-45">
          <mxGeometry width="80" relative="1" as="geometry">
            <mxPoint x="330" y="310" as="sourcePoint" />
            <mxPoint x="410" y="310" as="targetPoint" />
          </mxGeometry>
        </mxCell>
        <mxCell id="386D3UfEkrcN13lC_0d0-52" value="" style="ellipse;html=1;shape=startState;fillColor=#000000;strokeColor=#ff0000;" vertex="1" parent="1">
          <mxGeometry x="470" y="430" width="30" height="30" as="geometry" />
        </mxCell>
        <mxCell id="386D3UfEkrcN13lC_0d0-53" value="" style="edgeStyle=orthogonalEdgeStyle;html=1;verticalAlign=bottom;endArrow=open;endSize=8;strokeColor=#ff0000;rounded=0;" edge="1" source="386D3UfEkrcN13lC_0d0-52" parent="1">
          <mxGeometry relative="1" as="geometry">
            <mxPoint x="485" y="520" as="targetPoint" />
          </mxGeometry>
        </mxCell>
        <mxCell id="386D3UfEkrcN13lC_0d0-54" value="dispatch" style="html=1;verticalAlign=bottom;startArrow=circle;startFill=1;endArrow=open;startSize=6;endSize=8;curved=0;rounded=0;entryX=0.5;entryY=0;entryDx=0;entryDy=0;" edge="1" parent="1" target="386D3UfEkrcN13lC_0d0-52">
          <mxGeometry width="80" relative="1" as="geometry">
            <mxPoint x="400" y="400" as="sourcePoint" />
            <mxPoint x="480" y="400" as="targetPoint" />
          </mxGeometry>
        </mxCell>
        <mxCell id="386D3UfEkrcN13lC_0d0-55" value="dispatch" style="html=1;verticalAlign=bottom;startArrow=oval;startFill=1;endArrow=block;startSize=8;curved=0;rounded=0;entryX=0.25;entryY=1;entryDx=0;entryDy=0;" edge="1" parent="1" target="386D3UfEkrcN13lC_0d0-42">
          <mxGeometry width="60" relative="1" as="geometry">
            <mxPoint x="480" y="520" as="sourcePoint" />
            <mxPoint x="540" y="520" as="targetPoint" />
          </mxGeometry>
        </mxCell>
      </root>
    </mxGraphModel>
  </diagram>
</mxfile>
